{"title":"Adam Chaplin (2011) DVDRip XviD - DSTRY","uid":7112237,"size":1209182468,"categoryP":"video","categoryS":"movies","magnet":"?xt=urn:btih:8f7f4bf23abeede5f8d2e286b1f0c8cfe1f0d600&amp;dn=Adam+Chaplin+%282011%29+DVDRip+XviD+-+DSTRY&amp;tr=udp%3A%2F%2Ftracker.openbittorrent.com%3A80&amp;tr=udp%3A%2F%2Fopen.demonii.com%3A1337&amp;tr=udp%3A%2F%2Ftracker.coppersurfer.tk%3A6969&amp;tr=udp%3A%2F%2Fexodus.desync.com%3A6969","seeders":2,"leechers":0,"uploader":"Horrorspoke","files":-1,"time":1332104506,"description":"Set in the fictional country of Heaven Valley, the film is the story of a man, Adam, who following the suspicious death of his wife begins to investigate her murder and in doing so, discovers the involvement of local mafia boss: Denny Richards.\n\nUnable to trust the police, corrupt and controlled by Denny, Adam, consumed by anger, summons a demon who offers him superhuman strength and dark powers. The demon follows him during his trip, promising to lead Adam to the door of the murderer if he does everything the demon asks.\n\nThis unleashes a bloody war that will bring Adam, the demon on his side, against the police department with all its dark allies. The fight begins and it will be extreme! \n\nENCODE INFO:\n\nGeneral\nFormat                           : AVI\nFormat/Info                      : Audio Video Interleave\nFormat profile                   : OpenDML\nFile size                        : 1.13 GiB\nDuration                         : 1h 24mn\nOverall bit rate                 : 1 905 Kbps\nWriting application              : MEncoder version Beta 4.4.5 building on 20110111\n\nVideo\nID                               : 0\nFormat                           : MPEG-4 Visual\nFormat profile                   : Advanced Simple@L5\nFormat settings, BVOP            : 2\nFormat settings, QPel            : No\nFormat settings, GMC             : No warppoints\nFormat settings, Matrix          : Default (H.263)\nCodec ID                         : XVID\nCodec ID/Hint                    : XviD\nDuration                         : 1h 24mn\nBit rate                         : 1 761 Kbps\nWidth                            : 720 pixels\nHeight                           : 404 pixels\nDisplay aspect ratio             : 16:9\nFrame rate                       : 25.000 fps\nColor space                      : YUV\nChroma subsampling               : 4:2:0\nBit depth                        : 8 bits\nScan type                        : Progressive\nCompression mode                 : Lossy\nBits/(Pixel*Frame)               : 0.242\nStream size                      : 1.04 GiB (92%)\nWriting library                  : XviD 1.2.1 (UTC 2008-12-04)\n\nAudio\nID                               : 1\nFormat                           : MPEG Audio\nFormat version                   : Version 1\nFormat profile                   : Layer 3\nCodec ID                         : 55\nCodec ID/Hint                    : MP3\nDuration                         : 1h 24mn\nBit rate mode                    : Constant\nBit rate                         : 128 Kbps\nChannel(s)                       : 2 channels\nSampling rate                    : 44.1 KHz\nCompression mode                 : Lossy\nDelay relative to video          : 40ms\nStream size                      : 1.64 MiB (0%)\nAlignment                        : Aligned on interleaves\nInterleave, duration             : 1236 ms (30.89 video frames)\nInterleave, preload duration     : 522 ms\n\n\nSCREENS:\n &lt;a href=&quot;\nhttp://imghunt.org/images/37651903898824828217.png&quot; rel=&quot;nofollow&quot; target=&quot;_NEW&quot;&gt;\nhttp://imghunt.org/images/37651903898824828217.png&lt;/a&gt; &lt;a href=&quot;\nhttp://imghunt.org/images/97472229529112426496.png&quot; rel=&quot;nofollow&quot; target=&quot;_NEW&quot;&gt;\nhttp://imghunt.org/images/97472229529112426496.png&lt;/a&gt; &lt;a href=&quot;\nhttp://imghunt.org/images/64330751169228624390.png&quot; rel=&quot;nofollow&quot; target=&quot;_NEW&quot;&gt;\nhttp://imghunt.org/images/64330751169228624390.png&lt;/a&gt; &lt;a href=&quot;\nhttp://imghunt.org/images/35875801339677920581.png&quot; rel=&quot;nofollow&quot; target=&quot;_NEW&quot;&gt;\nhttp://imghunt.org/images/35875801339677920581.png&lt;/a&gt;\n\nPLEASE BE PATIENT, MY UPLOAD SPEED ISN'T TOO HOT :)\n\nThanks to Creature for the original file :)\n\nENJOY, AND SEED AWAY.....","torrent":{"xt":"urn:btih:8f7f4bf23abeede5f8d2e286b1f0c8cfe1f0d600","amp;dn":"Adam+Chaplin+%282011%29+DVDRip+XviD+-+DSTRY","amp;tr":["udp%3A%2F%2Ftracker.openbittorrent.com%3A80","udp%3A%2F%2Fopen.demonii.com%3A1337","udp%3A%2F%2Ftracker.coppersurfer.tk%3A6969","udp%3A%2F%2Fexodus.desync.com%3A6969"],"infoHash":"8f7f4bf23abeede5f8d2e286b1f0c8cfe1f0d600","infoHashBuffer":{"type":"Buffer","data":[143,127,75,242,58,190,237,229,248,210,226,134,177,240,200,207,225,240,214,0]},"announce":[],"urlList":[]}}